    Stream #0:1(und), 1, 1/44100: Audio: aac (HE-AAC) (mp4a / 0x6134706D), 44100 Hz, stereo, fltp, 48 kb/s (default)
    Stream #0:0(und), 3, 1/10240: Video: h264 (High) (avc1 / 0x31637661), yuv420p, 480x640, 1480 kb/s, 20 fps, 20 tbr, 10240 tbn, 40 tbc (default)
      handler_name    : VideoHandler
